<svg xmlns="http://www.w3.org/2000/svg" width="578" height="156" viewBox="0 0 578 156"><defs><style>.a,.c{fill:#fff;}.a{opacity:0.25;}.b{opacity:0.5;}</style></defs><title>partner</title><rect class="a" width="578" height="156"/><g class="b"><path class="c" d="M105.24,113.65V42.49h19.23V98.13h27.4v15.53H105.24Z"/><path class="c" d="M259.74,78q0,18-8.81,27.3t-25.8,9.34q-16.74,0-25.67-9.39t-8.93-27.35q0-17.76,8.88-27.13t25.82-9.37q17,0,25.75,9.3T259.74,78Zm-49,0q0,20.64,14.36,20.64,7.3,0,10.83-5T239.49,78q0-10.66-3.58-15.75t-10.68-5.09Q210.78,57.14,210.78,78Z"/><path class="c" d="M331.06,72h30.71v38.35a84.42,84.42,0,0,1-27.5,4.28q-16.45,0-25.43-9.54t-9-27.21q0-17.23,9.83-26.82t27.55-9.59a61,61,0,0,1,12.68,1.27,53.64,53.64,0,0,1,10.39,3.21L354.23,61a37.62,37.62,0,0,0-16.89-3.8q-8.42,0-13,5.48t-4.6,15.65q0,10,4.16,15.21t12,5.23a35.22,35.22,0,0,0,7.88-.83V86.83h-12.7V72Z"/><path class="c" d="M472.76,78q0,18-8.81,27.3t-25.8,9.34q-16.74,0-25.67-9.39t-8.93-27.35q0-17.76,8.88-27.13t25.82-9.37q17,0,25.75,9.3T472.76,78Zm-49,0q0,20.64,14.36,20.64,7.3,0,10.83-5T452.52,78q0-10.66-3.58-15.75t-10.68-5.09Q423.8,57.14,423.8,78Z"/></g></svg>